<svg width="1512" height="982" viewBox="0 0 1512 982" fill="none" xmlns="http://www.w3.org/2000/svg">
<g clip-path="url(#clip0_72_2)">
<rect width="1512" height="982" fill="#FFDAB3"/>
<rect width="1512" height="982" fill="#F3E2C6"/>
<path d="M233.703 107.517C113.254 233.719 166.947 364.985 78.5275 457.629C-9.89254 550.273 -199.113 380.641 -312.586 582.56C-426.058 784.48 -647 662.401 -647 662.401L404.185 -439C404.185 -439 640.902 -62.8991 553.577 28.5975C466.252 120.094 354.151 -18.6854 233.703 107.517Z" fill="#9EC7BC"/>
<path d="M934.074 1444.04C1023.75 1262.9 877.453 1115.63 943.285 982.658C1009.12 849.684 1358.59 1012.45 1396 740.842C1433.41 469.237 1798.38 566.886 1798.38 566.886L1015.73 2147.76C1015.73 2147.76 485.615 1744.86 550.632 1613.53C615.649 1482.21 844.395 1625.18 934.074 1444.04Z" fill="#264D8C"/>
</g>
<defs>
<clipPath id="clip0_72_2">
<rect width="1512" height="982" fill="white"/>
</clipPath>
</defs>
</svg>
